HIERARCHY
ROOT Hips
{
  OFFSET -125.086 92.215 135.881
  CHANNELS 6 Xposition Yposition Zposition Zrotation Xrotation Yrotation
  JOINT LeftUpLeg
  {
    OFFSET 8.64259 1.95398 -2.38835
    CHANNELS 3 Zrotation Xrotation Yrotation
    JOINT LeftLeg
    {
      OFFSET 43.7702 0 0
      CHANNELS 3 Zrotation Xrotation Yrotation
      JOINT LeftFoot
      {
        OFFSET 40.6238 0 0
        CHANNELS 3 Zrotation Xrotation Yrotation
        JOINT LeftToeBase
        {
          OFFSET 12.7242 0 0
          CHANNELS 3 Zrotation Xrotation Yrotation
          End Site
          {
            OFFSET 0 0 0
          }
        }
      }
    }
  }
  JOINT RightUpLeg
  {
    OFFSET -8.2249 1.95398 -2.59336
    CHANNELS 3 Zrotation Xrotation Yrotation
    JOINT RightLeg
    {
      OFFSET 43.5653 0 0
      CHANNELS 3 Zrotation Xrotation Yrotation
      JOINT RightFoot
      {
        OFFSET 40.6238 0 0
        CHANNELS 3 Zrotation Xrotation Yrotation
        JOINT RightToeBase
        {
          OFFSET 12.7242 0 0
          CHANNELS 3 Zrotation Xrotation Yrotation
          End Site
          {
            OFFSET 0 0 0
          }
        }
      }
    }
  }
  JOINT Spine
  {
    OFFSET 0.165834 0.87714 6.61349
    CHANNELS 3 Zrotation Xrotation Yrotation
    JOINT Spine1
    {
      OFFSET 7.38963 1.71661e-005 0
      CHANNELS 3 Zrotation Xrotation Yrotation
      JOINT Spine2
      {
        OFFSET 11.9445 1.14441e-005 0
        CHANNELS 3 Zrotation Xrotation Yrotation
        JOINT Spine3
        {
          OFFSET 14.7254 4.19617e-005 0
          CHANNELS 3 Zrotation Xrotation Yrotation
          JOINT Spine4
          {
            OFFSET 10.9679 0 0
            CHANNELS 3 Zrotation Xrotation Yrotation
            JOINT RightShoulder
            {
              OFFSET 2.46616 -1.6653 3.69651
              CHANNELS 3 Zrotation Xrotation Yrotation
              JOINT RightArm
              {
                OFFSET 13.0012 0 0
                CHANNELS 3 Zrotation Xrotation Yrotation
                JOINT RightForeArm
                {
                  OFFSET 28.7848 1.52588e-005 0
                  CHANNELS 3 Zrotation Xrotation Yrotation
                  JOINT RightHand
                  {
                    OFFSET 26.5688 1.52588e-005 0
                    CHANNELS 3 Zrotation Xrotation Yrotation
                    End Site
                    {
                      OFFSET 0 0 0
                    }
                  }
                }
              }
            }
            JOINT LeftShoulder
            {
              OFFSET 2.38034 -1.29275 -3.7523
              CHANNELS 3 Zrotation Xrotation Yrotation
              JOINT LeftArm
              {
                OFFSET 16.3182 6.10352e-005 0
                CHANNELS 3 Zrotation Xrotation Yrotation
                JOINT LeftForeArm
                {
                  OFFSET 27.0901 0 0
                  CHANNELS 3 Zrotation Xrotation Yrotation
                  JOINT LeftHand
                  {
                    OFFSET 24.5451 1.52588e-005 0
                    CHANNELS 3 Zrotation Xrotation Yrotation
                    End Site
                    {
                      OFFSET 0 0 0
                    }
                  }
                }
              }
            }
            JOINT Neck
            {
              OFFSET 5.0226 -0.0266342 0
              CHANNELS 3 Zrotation Xrotation Yrotation
              JOINT Head
              {
                OFFSET 6.69363 2.86102e-005 0
                CHANNELS 3 Zrotation Xrotation Yrotation
                End Site
                {
                  OFFSET 0 0 0
                }
              }
            }
          }
        }
      }
    }
  }
}
MOTION
Frames:	10
Frame Time:	0.0416667
48.5598 95.9405 -63.3429 132.334 -81.4207 133.401 177.29 16.5123 92.597 -12.5801 14.0192 3.28116 47.7554 1.22349 5.84734 49.5579 -1.02457 11.1848 175.198 0.856514 92.2118 -31.2588 -4.74868 0.820244 69.3363 -0.99483 15.8477 36.6644 -1.19111 -1.34828 0.0251553 7.73954 -90.5148 11.3928 -0.190115 -1.00612 -0.278475 -0.234208 -0.996786 -22.8105 0.121037 -1.01675 -2.79787 0.121035 -1.01675 110.676 -51.424 -69.1499 27.8942 -2.33708 -13.0979 -8.28024 -27.8808 -28.1939 -8.42924 -0.349578 -0.374381 -73.0169 -48.5721 104.331 -39.6818 -17.4001 -4.93071 20.1329 66.1327 -16.5285 -13.3987 0.350843 -8.94037 0.262211 -7.13009 -1.62664 -19.3191 -6.00638 -6.27055 
48.9302 95.2891 -55.494 -175.512 -84.4755 -172.931 177.64 18.7503 93.1384 -11.671 26.6359 9.61294 56.1082 1.71487 1.03556 52.591 -1.01135 10.8839 175.831 -2.76513 92.477 -32.4784 -10.7931 -0.530206 68.177 -2.00252 14.5279 44.3174 -2.37391 1.102 0.29218 7.80965 -90.614 11.2546 0.29574 -1.2514 -0.416892 0.240382 -1.2632 -22.9483 0.658136 -1.10468 -2.93567 0.65814 -1.10469 110.37 -50.9694 -69.5456 27.6198 -3.56108 -13.7839 -8.37728 -26.293 -30.0975 -9.39457 -0.32842 -1.12831 -72.5186 -49.2586 105.033 -38.0898 -17.9096 -3.30468 20.3504 65.036 -17.5643 -16.3437 0.455048 -8.81258 -0.854026 -8.26861 0.240029 -20.3097 -6.82342 -10.004 
49.7516 94.115 -46.7152 -128.024 -80.0572 -125.826 177.225 16.8235 94.0699 -15.6849 26.694 8.85934 52.0944 0.654738 2.71531 53.3613 -1.04025 10.6281 176.511 -4.54554 90.5002 -38.2686 -17.1191 -3.80739 63.9375 -1.01581 15.0982 57.2205 -4.04096 2.41639 0.37779 7.89031 -90.4063 11.0936 0.563431 -0.864756 -0.577562 0.524828 -0.888723 -23.1122 0.797279 -0.655446 -3.0995 0.797267 -0.655466 110.238 -51.319 -69.8001 27.9172 -3.49065 -13.0353 -8.27857 -27.7916 -28.9308 -10.0705 -0.332286 -1.28264 -71.8843 -49.8054 105.948 -36.4405 -17.8306 -4.27834 17.8069 64.1222 -14.7804 -13.5554 0.388587 -9.31658 -3.40949 -8.9593 1.34103 -19.64 -7.25318 -13.221 
49.9139 93.0366 -38.443 -121.977 -76.0089 -122.846 178.836 17.1985 91.0487 -28.1588 24.7294 7.21374 53.5213 0.367912 5.76584 48.3935 -1.27403 6.61999 175.351 -1.38951 84.8992 -52.1014 -16.5535 -4.82621 53.1256 2.32687 15.9989 47.6098 -2.69506 4.21479 0.0375309 8.04647 -89.8244 10.7841 0.155829 0.336987 -0.886794 0.170512 0.329796 -23.4219 0.0473396 0.368233 -3.40928 0.0473422 0.368237 110.777 -51.778 -69.0519 30.4703 -1.32851 -11.2288 -6.30481 -29.5678 -23.5273 -11.7607 -0.618656 0.869957 -73.2136 -48.9782 103.992 -37.4479 -17.9484 -9.53686 15.2503 67.5435 -10.056 -12.7323 0.25969 -8.25582 -5.74228 -10.7017 2.66385 -20.9817 -8.14092 -18.6499 
49.6572 93.2805 -31.8742 -112.937 -69.5242 -114.74 -177.326 13.5527 90.2523 -31.9706 20.6504 5.27472 58.7911 2.4803 8.7855 48.0106 -1.39252 4.61307 176.029 10.7947 84.0541 -70.7713 -11.8449 -4.42251 46.8108 3.72402 12.2343 40.8638 -1.98033 -10.0284 -0.236416 8.22089 -89.5196 10.4322 -0.250637 0.976658 -1.23911 -0.207419 0.986738 -23.7721 -0.532563 0.856194 -3.75942 -0.532565 0.856192 110.559 -51.6631 -69.3644 33.2125 -0.139612 -12.2998 -3.856 -34.0005 -16.4567 -9.69118 -0.612033 2.26804 -74.2145 -48.0629 102.515 -38.8806 -16.8018 -18.269 10.3657 64.6997 -2.49523 -11.7256 0.137078 -7.15177 -6.01677 -10.6379 2.92477 -21.0688 -8.22683 -17.7357 
48.3778 94.1905 -25.6876 -106.183 -65.4474 -105.299 -175.004 10.5366 92.7291 -32.8816 17.1501 5.15168 62.4641 3.95878 8.94957 48.5573 -1.38909 5.09677 172.483 20.0572 89.0027 -71.4331 -12.9278 -1.24803 51.1293 2.50855 16.1682 40.4928 -1.85349 -2.56675 -0.710115 8.18695 -89.7955 10.5025 -1.32063 0.524086 -1.16793 -1.29629 0.581699 -23.7082 -1.41709 0.102879 -3.69559 -1.41708 0.102878 110.466 -52.0254 -69.5618 33.147 -0.720252 -10.424 -5.34628 -35.9011 -18.2548 -4.45951 -0.204442 0.374696 -74.9306 -46.5979 101.479 -38.8787 -13.0907 -25.2465 11.0294 56.6478 -4.17249 -3.49535 -0.0957326 -4.74288 -6.23045 -9.68327 2.37243 -19.863 -7.82178 -14.8167 
46.615 94.9176 -20.1035 -101.089 -60.6623 -99.9133 -173.188 5.81398 94.3877 -30.4994 14.2214 3.78532 63.6924 4.46237 9.1666 50.0918 -1.35529 6.45619 168.564 23.5497 91.2555 -55.7764 -10.1733 3.05528 55.518 1.53549 19.023 44.9478 -2.31315 2.06122 -1.0531 8.05585 -89.8224 10.7681 -2.01506 0.539538 -0.901455 -1.98934 0.627724 -23.4493 -2.08401 -0.0912738 -3.43665 -2.084 -0.0912818 111.165 -52.4378 -68.5747 33.5437 -1.27928 -7.36328 -6.53604 -36.4058 -20.7026 -6.73847 -0.371203 1.22448 -74.9918 -45.9311 101.417 -35.1298 -9.62084 -31.1464 11.6451 47.2985 -9.27962 -1.18485 -0.0925604 -4.34773 -5.53801 -8.80375 2.09727 -20.5787 -6.72981 -15.435 
44.3834 95.6727 -14.8182 -96.6873 -53.884 -97.0065 -172.387 -0.351632 90.2309 -24.2798 9.50419 2.22783 62.0349 3.62762 8.56026 52.3958 -1.15502 9.41523 169.501 20.1152 91.7807 -26.381 0.96506 5.77655 54.9095 1.62491 15.515 50.5657 -3.16069 2.49482 -0.963201 7.8524 -89.7916 11.1748 -1.82019 0.592874 -0.495027 -1.79233 0.672419 -23.0404 -1.91421 0.0182291 -3.02771 -1.9142 0.018229 110.925 -52.1128 -68.8837 34.83 0.880894 -5.09367 -6.02307 -36.1705 -18.7587 -7.15262 -0.42672 1.90371 -74.1693 -46.4859 102.691 -30.8834 -6.64242 -36.3393 13.2002 40.0067 -17.4082 -1.84216 -0.0941595 -5.00058 -3.96782 -7.84452 2.88444 -20.9546 -6.06911 -13.746 
41.0367 95.913 -9.88223 -92.7377 -48.6115 -96.0034 -172.388 -4.94636 89.8264 -19.4844 7.50675 0.979839 58.1734 2.48019 5.7672 58.567 -0.663858 12.848 177.202 19.5507 90.2183 -7.6116 19.418 1.1137 56.6212 2.56956 16.8687 47.6703 -2.99174 -0.768618 -0.873457 7.54685 -89.7403 11.7858 -1.61504 0.688783 0.11564 -1.58317 0.759197 -22.4274 -1.74737 0.171422 -2.41473 -1.74736 0.171419 110.456 -51.8018 -69.5431 35.3585 3.89904 -4.43999 -4.80055 -39.4911 -13.8844 -5.74838 -0.340711 1.8941 -74.1933 -46.4812 102.654 -29.0425 -4.39111 -37.4663 16.2615 34.6617 -27.7565 -0.598367 -0.105608 -5.34394 -2.3947 -6.91281 4.11307 -20.2047 -5.6149 -12.2574 
36.4193 95.0635 -4.28418 -93.1029 -46.4364 -96.7955 -172.612 -6.13306 89.8874 -26.8256 8.16542 1.48585 54.9911 0.912783 1.84371 67.5718 0.22481 15.7316 175.409 20.5983 89.0329 -14.0815 19.0238 2.29526 56.812 3.03944 16.8333 43.9743 -2.36181 -2.15418 -0.914282 7.58798 -90.0172 11.706 -1.82649 0.155109 0.0364049 -1.8179 0.235364 -22.5093 -1.78863 -0.401181 -2.49664 -1.78864 -0.401187 110.228 -51.6507 -69.8664 34.9613 6.83769 -5.69507 -2.79168 -40.7875 -8.47854 -5.85331 -0.346212 1.85613 -73.4305 -47.879 103.748 -28.1173 -1.30433 -36.5721 19.4642 34.0314 -37.1037 0.819064 -0.139621 -6.24387 -0.00280118 -6.44897 5.08593 -20.1237 -5.50203 -11.2742 
